<svg xmlns="http://www.w3.org/2000/svg" xmlns:xlink="http://www.w3.org/1999/xlink" width="123" zoomAndPan="magnify" viewBox="0 0 92.25 44.249999" height="59" preserveAspectRatio="xMidYMid meet" version="1.0"><defs><g/><clipPath id="8f4596674d"><path d="M 3 0 L 89 0 L 89 43.511719 L 3 43.511719 Z M 3 0 " clip-rule="nonzero"/></clipPath></defs><path stroke-linecap="butt" transform="matrix(0.10105, 0, 0, 0.10105, 7.752392, 7.351617)" fill="none" stroke-linejoin="miter" d="M 126.615098 104.990575 L 126.615098 16.699076 L 171.186069 16.699076 L 198.284292 61.501986 L 199.250705 63.512126 L 199.366674 63.512126 L 200.294431 61.501986 L 227.276684 16.699076 L 271.963625 16.699076 L 271.963625 104.990575 L 236.090372 104.990575 L 236.090372 56.747234 L 236.206341 54.698438 L 235.510524 56.399325 L 213.051084 93.470931 L 185.566296 93.470931 L 163.068199 56.399325 L 162.372382 54.698438 L 162.488351 56.747234 L 162.488351 104.990575 Z M 270.57199 104.990575 L 308.455383 16.699076 L 368.141055 16.699076 L 406.913548 104.990575 L 361.956011 104.990575 L 357.046633 90.610348 L 320.245623 90.610348 L 315.374901 104.990575 Z M 327.590362 69.001352 L 349.74055 69.001352 L 339.72851 39.506425 L 338.916723 36.297933 L 338.414189 36.297933 L 337.602402 39.506425 Z M 430.996562 104.990575 L 430.996562 42.096412 L 397.945234 42.096412 L 397.945234 16.699076 L 505.642308 16.699076 L 505.642308 42.096412 L 472.70695 42.096412 L 472.70695 104.990575 Z M 583.496546 104.990575 L 583.496546 71.823278 L 546.308971 71.823278 L 546.308971 104.990575 L 504.443956 104.990575 L 504.443956 16.699076 L 546.308971 16.699076 L 546.308971 46.889821 L 583.496546 46.889821 L 583.496546 16.699076 L 625.206935 16.699076 L 625.206935 104.990575 Z M 583.496546 104.990575 " stroke="#1e5175" stroke-width="31.20495" stroke-opacity="1" stroke-miterlimit="4"/><g fill="#fe95f6" fill-opacity="1"><g transform="translate(19.681054, 17.96189)"><g><path d="M 0.859375 0 L 0.859375 -8.921875 L 5.375 -8.921875 L 8.109375 -4.390625 L 8.203125 -4.1875 L 8.21875 -4.1875 L 8.3125 -4.390625 L 11.046875 -8.921875 L 15.5625 -8.921875 L 15.5625 0 L 11.9375 0 L 11.9375 -5.078125 L 11.875 -4.921875 L 9.59375 -1.171875 L 6.828125 -1.171875 L 4.546875 -4.921875 L 4.484375 -5.078125 L 4.5 -4.875 L 4.5 0 Z M 0.859375 0 "/></g></g></g><g fill="#fe95f6" fill-opacity="1"><g transform="translate(35.018639, 17.96189)"><g><path d="M 0.078125 0 L 3.90625 -8.921875 L 9.9375 -8.921875 L 13.859375 0 L 9.3125 0 L 8.8125 -1.453125 L 5.09375 -1.453125 L 4.609375 0 Z M 5.84375 -3.640625 L 8.078125 -3.640625 L 7.0625 -6.625 L 6.984375 -6.9375 L 6.9375 -6.9375 L 6.84375 -6.625 Z M 5.84375 -3.640625 "/></g></g></g><g fill="#fe95f6" fill-opacity="1"><g transform="translate(47.87, 17.96189)"><g><path d="M 3.4375 0 L 3.4375 -6.359375 L 0.09375 -6.359375 L 0.09375 -8.921875 L 10.984375 -8.921875 L 10.984375 -6.359375 L 7.65625 -6.359375 L 7.65625 0 Z M 3.4375 0 "/></g></g></g><g fill="#fe95f6" fill-opacity="1"><g transform="translate(57.862799, 17.96189)"><g><path d="M 8.859375 0 L 8.859375 -3.359375 L 5.09375 -3.359375 L 5.09375 0 L 0.859375 0 L 0.859375 -8.921875 L 5.09375 -8.921875 L 5.09375 -5.875 L 8.859375 -5.875 L 8.859375 -8.921875 L 13.078125 -8.921875 L 13.078125 0 Z M 8.859375 0 "/></g></g></g><g clip-path="url(#8f4596674d)"><path stroke-linecap="butt" transform="matrix(0.10105, 0, 0, 0.10105, 7.599236, 18.684077)" fill="none" stroke-linejoin="miter" d="M 165.472941 134.983798 L 165.472941 21.681529 L 219.166852 21.681529 L 219.166852 102.821571 L 281.558481 102.821571 L 281.558481 134.983798 Z M 272.706137 134.983798 L 321.336043 21.681529 L 397.914616 21.681529 L 447.665561 134.983798 L 389.990028 134.983798 L 383.727672 116.544637 L 336.450744 116.544637 L 330.227043 134.983798 Z M 345.921592 88.789253 L 374.29548 88.789253 L 361.461514 50.944517 L 360.417788 46.846925 L 359.799284 46.846925 L 358.755558 50.944517 Z M 446.003331 134.983798 L 446.003331 21.681529 L 541.794195 21.681529 C 551.651609 21.681529 560.272013 22.493316 567.616753 24.11689 C 575.000149 25.740464 580.721314 28.485077 584.780249 32.350729 C 588.877841 36.216381 590.88798 41.473669 590.88798 48.199904 C 590.88798 55.196734 588.568588 61.033869 583.929806 65.633996 C 579.329679 70.195465 572.023596 73.094705 562.08887 74.293057 L 562.08887 74.602309 C 572.642101 75.800661 581.030566 78.893183 587.176954 83.918531 C 593.323341 88.905223 596.415863 95.399519 596.415863 103.401419 C 596.415863 109.818402 594.908258 115.075689 591.893049 119.211937 C 588.916497 123.348185 584.818906 126.51802 579.677588 128.798755 C 574.53627 131.118146 568.699135 132.703063 562.166183 133.63082 C 555.594574 134.558577 548.752369 134.983798 541.639569 134.983798 Z M 498.305607 105.256932 L 530.197238 105.256932 C 534.758708 105.256932 538.160482 104.561115 540.40256 103.208136 C 542.644639 101.816501 543.765678 99.535767 543.765678 96.249962 C 543.765678 90.567453 538.856299 87.70687 529.114856 87.70687 L 498.305607 87.70687 Z M 498.305607 66.948317 L 529.73336 66.948317 C 538.199139 66.948317 542.4127 64.4743 542.4127 59.487608 C 542.4127 54.075695 538.547047 51.369739 530.777086 51.369739 L 498.305607 51.369739 Z M 498.305607 66.948317 " stroke="#1e5175" stroke-width="36.232288" stroke-opacity="1" stroke-miterlimit="4"/></g><g fill="#91c4f6" fill-opacity="1"><g transform="translate(23.208337, 32.325856)"><g><path d="M 1.109375 0 L 1.109375 -11.453125 L 6.53125 -11.453125 L 6.53125 -3.25 L 12.84375 -3.25 L 12.84375 0 Z M 1.109375 0 "/></g></g></g><g fill="#91c4f6" fill-opacity="1"><g transform="translate(35.062298, 32.325856)"><g><path d="M 0.09375 0 L 5.015625 -11.453125 L 12.75 -11.453125 L 17.78125 0 L 11.953125 0 L 11.3125 -1.859375 L 6.53125 -1.859375 L 5.90625 0 Z M 7.5 -4.671875 L 10.359375 -4.671875 L 9.0625 -8.5 L 8.953125 -8.90625 L 8.890625 -8.90625 L 8.796875 -8.5 Z M 7.5 -4.671875 "/></g></g></g><g fill="#91c4f6" fill-opacity="1"><g transform="translate(51.556144, 32.325856)"><g><path d="M 1.109375 0 L 1.109375 -11.453125 L 10.796875 -11.453125 C 11.796875 -11.453125 12.664062 -11.367188 13.40625 -11.203125 C 14.15625 -11.046875 14.734375 -10.769531 15.140625 -10.375 C 15.554688 -9.988281 15.765625 -9.457031 15.765625 -8.78125 C 15.765625 -8.0625 15.53125 -7.472656 15.0625 -7.015625 C 14.59375 -6.554688 13.851562 -6.265625 12.84375 -6.140625 L 12.84375 -6.109375 C 13.914062 -5.984375 14.757812 -5.664062 15.375 -5.15625 C 16 -4.65625 16.3125 -4 16.3125 -3.1875 C 16.3125 -2.539062 16.160156 -2.007812 15.859375 -1.59375 C 15.554688 -1.175781 15.144531 -0.851562 14.625 -0.625 C 14.101562 -0.394531 13.507812 -0.234375 12.84375 -0.140625 C 12.1875 -0.046875 11.5 0 10.78125 0 Z M 6.40625 -3 L 9.625 -3 C 10.082031 -3 10.425781 -3.066406 10.65625 -3.203125 C 10.882812 -3.347656 11 -3.585938 11 -3.921875 C 11 -4.492188 10.503906 -4.78125 9.515625 -4.78125 L 6.40625 -4.78125 Z M 6.40625 -6.875 L 9.578125 -6.875 C 10.429688 -6.875 10.859375 -7.128906 10.859375 -7.640625 C 10.859375 -8.179688 10.46875 -8.453125 9.6875 -8.453125 L 6.40625 -8.453125 Z M 6.40625 -6.875 "/></g></g></g></svg>